<svg width="512" height="512" viewBox="0 0 512 512" fill="none" xmlns="http://www.w3.org/2000/svg">
  <!-- Background Circle -->
  <circle cx="256" cy="256" r="240" fill="#3B82F6"/>
  
  <!-- Plate Base -->
  <circle cx="256" cy="280" r="120" fill="#FFFFFF" stroke="#E5E7EB" stroke-width="4"/>
  
  <!-- Food Items -->
  <!-- Main dish (chicken/protein) -->
  <ellipse cx="220" cy="260" rx="35" ry="25" fill="#F59E0B" transform="rotate(-15 220 260)"/>
  
  <!-- Vegetables -->
  <circle cx="290" cy="250" r="18" fill="#10B981"/>
  <circle cx="310" cy="270" r="15" fill="#EF4444"/>
  <circle cx="275" cy="290" r="12" fill="#F59E0B"/>
  
  <!-- Side dish -->
  <ellipse cx="240" cy="310" rx="20" ry="12" fill="#8B5CF6"/>
  
  <!-- Utensils -->
  <!-- Fork -->
  <rect x="180" y="150" width="4" height="80" fill="#6B7280" rx="2"/>
  <rect x="175" y="150" width="14" height="20" fill="#6B7280" rx="2"/>
  <line x1="177" y1="155" x2="177" y2="165" stroke="#FFFFFF" stroke-width="1"/>
  <line x1="181" y1="155" x2="181" y2="165" stroke="#FFFFFF" stroke-width="1"/>
  <line x1="185" y1="155" x2="185" y2="165" stroke="#FFFFFF" stroke-width="1"/>
  
  <!-- Knife -->
  <rect x="325" y="150" width="4" height="80" fill="#6B7280" rx="2"/>
  <rect x="322" y="150" width="10" height="40" fill="#9CA3AF" rx="1"/>
  
  <!-- Calendar Icon (small) -->
  <rect x="140" y="350" width="60" height="50" fill="#FFFFFF" stroke="#D1D5DB" stroke-width="2" rx="4"/>
  <rect x="140" y="350" width="60" height="15" fill="#3B82F6" rx="4 4 0 0"/>
  <rect x="150" y="340" width="4" height="15" fill="#6B7280" rx="2"/>
  <rect x="180" y="340" width="4" height="15" fill="#6B7280" rx="2"/>
  <circle cx="155" cy="375" r="3" fill="#3B82F6"/>
  <circle cx="170" cy="375" r="3" fill="#3B82F6"/>
  <circle cx="185" cy="375" r="3" fill="#3B82F6"/>
  <circle cx="155" cy="390" r="3" fill="#EF4444"/>
  
  <!-- App Title -->
  <text x="256" y="450" font-family="system-ui, -apple-system, sans-serif" font-size="24" font-weight="600" text-anchor="middle" fill="#FFFFFF">Weekly</text>
  <text x="256" y="475" font-family="system-ui, -apple-system, sans-serif" font-size="20" font-weight="400" text-anchor="middle" fill="#DBEAFE">Meals</text>
</svg>
