<svg width="512" height="512" viewBox="0 0 512 512" fill="none" xmlns="http://www.w3.org/2000/svg">
  <!-- Safe area background -->
  <rect width="512" height="512" fill="#3B82F6"/>
  
  <!-- Main icon in safe zone (centered in 320x320 area) -->
  <g transform="translate(96, 96)">
    <!-- Plate -->
    <circle cx="160" cy="180" r="80" fill="#FFFFFF" stroke="#E5E7EB" stroke-width="3"/>
    
    <!-- Food Items -->
    <ellipse cx="140" cy="165" rx="25" ry="18" fill="#F59E0B" transform="rotate(-15 140 165)"/>
    <circle cx="180" cy="160" r="12" fill="#10B981"/>
    <circle cx="190" cy="180" r="10" fill="#EF4444"/>
    <circle cx="170" cy="195" r="8" fill="#8B5CF6"/>
    
    <!-- Simple utensils -->
    <rect x="100" y="80" width="3" height="60" fill="#FFFFFF" rx="1.5"/>
    <rect x="97" y="80" width="9" height="15" fill="#FFFFFF" rx="1"/>
    
    <rect x="217" y="80" width="3" height="60" fill="#FFFFFF" rx="1.5"/>
    <rect x="215" y="80" width="7" height="30" fill="#FFFFFF" rx="1"/>
    
    <!-- Calendar -->
    <rect x="60" y="240" width="40" height="35" fill="#FFFFFF" stroke="#E5E7EB" stroke-width="2" rx="3"/>
    <rect x="60" y="240" width="40" height="12" fill="#FFFFFF" rx="3 3 0 0"/>
    <circle cx="72" cy="260" r="2" fill="#3B82F6"/>
    <circle cx="82" cy="260" r="2" fill="#3B82F6"/>
    <circle cx="92" cy="260" r="2" fill="#3B82F6"/>
    <circle cx="72" cy="270" r="2" fill="#EF4444"/>
  </g>
</svg>
