<!-- This is a 180x180 PNG equivalent of our icon for iOS -->
<svg width="180" height="180" viewBox="0 0 180 180" fill="none" xmlns="http://www.w3.org/2000/svg">
  <!-- Background Circle -->
  <circle cx="90" cy="90" r="84" fill="#3B82F6"/>
  
  <!-- Plate Base -->
  <circle cx="90" cy="98" r="42" fill="#FFFFFF" stroke="#E5E7EB" stroke-width="1.5"/>
  
  <!-- Food Items -->
  <!-- Main dish (chicken/protein) -->
  <ellipse cx="77" cy="91" rx="12" ry="9" fill="#F59E0B" transform="rotate(-15 77 91)"/>
  
  <!-- Vegetables -->
  <circle cx="102" cy="87.5" r="6.3" fill="#10B981"/>
  <circle cx="109" cy="94.5" r="5.25" fill="#EF4444"/>
  <circle cx="96.25" cy="101.5" r="4.2" fill="#F59E0B"/>
  
  <!-- Side dish -->
  <ellipse cx="84" cy="108.5" rx="7" ry="4.2" fill="#8B5CF6"/>
  
  <!-- Utensils -->
  <!-- Fork -->
  <rect x="63" y="52.5" width="1.4" height="28" fill="#FFFFFF" rx="0.7"/>
  <rect x="61.25" y="52.5" width="4.9" height="7" fill="#FFFFFF" rx="0.7"/>
  <line x1="62.25" y1="54.25" x2="62.25" y2="57.75" stroke="#3B82F6" stroke-width="0.35"/>
  <line x1="63.35" y1="54.25" x2="63.35" y2="57.75" stroke="#3B82F6" stroke-width="0.35"/>
  <line x1="64.75" y1="54.25" x2="64.75" y2="57.75" stroke="#3B82F6" stroke-width="0.35"/>
  
  <!-- Knife -->
  <rect x="114" y="52.5" width="1.4" height="28" fill="#FFFFFF" rx="0.7"/>
  <rect x="113.3" y="52.5" width="3.5" height="14" fill="#E5E7EB" rx="0.35"/>
  
  <!-- Calendar Icon (small) -->
  <rect x="49" y="122.5" width="21" height="17.5" fill="#FFFFFF" stroke="#D1D5DB" stroke-width="0.7" rx="1.4"/>
  <rect x="49" y="122.5" width="21" height="5.25" fill="#3B82F6" rx="1.4 1.4 0 0"/>
  <rect x="52.5" y="119" width="1.4" height="5.25" fill="#6B7280" rx="0.7"/>
  <rect x="63" y="119" width="1.4" height="5.25" fill="#6B7280" rx="0.7"/>
  <circle cx="54.25" cy="131.25" r="1.05" fill="#3B82F6"/>
  <circle cx="59.5" cy="131.25" r="1.05" fill="#3B82F6"/>
  <circle cx="64.75" cy="131.25" r="1.05" fill="#3B82F6"/>
  <circle cx="54.25" cy="136.5" r="1.05" fill="#EF4444"/>
  
  <!-- App Title -->
  <text x="90" y="157.5" font-family="system-ui, -apple-system, sans-serif" font-size="8.4" font-weight="600" text-anchor="middle" fill="#FFFFFF">Weekly</text>
  <text x="90" y="166.25" font-family="system-ui, -apple-system, sans-serif" font-size="7" font-weight="400" text-anchor="middle" fill="#DBEAFE">Meals</text>
</svg>
